{"title":"Furious.Seven.2015.EXTENDED.BRRip.XViD.AC3-Shelby","uid":12150981,"size":1982974660,"categoryP":"video","categoryS":"movies","magnet":"?xt=urn:btih:df2e43ef325481e50d9bca5ebe36d99fd89968f8&amp;dn=Furious.Seven.2015.EXTENDED.BRRip.XViD.AC3-Shelby&amp;tr=udp%3A%2F%2Ftracker.openbittorrent.com%3A80&amp;tr=udp%3A%2F%2Fopen.demonii.com%3A1337&amp;tr=udp%3A%2F%2Ftracker.coppersurfer.tk%3A6969&amp;tr=udp%3A%2F%2Fexodus.desync.com%3A6969","seeders":1,"leechers":0,"uploader":null,"files":2,"time":1437631409,"description":"Furious Seven 2015 EXTENDED BRRip XViD AC3-Shelby\n\nGeneral\nComplete name                            : Furious.Seven.2015.EXTENDED.BRRip.XViD.AC3-Shelby.avi\nFormat                                   : AVI\nFormat/Info                              : Audio Video Interleave\nFile size                                : 1.85 GiB\nDuration                                 : 2h 19mn\nOverall bit rate                         : 1 890 Kbps\nWriting application                      : Lavf55.19.104\nWriting library                          : \n\nVideo\nID                                       : 0\nFormat                                   : MPEG-4 Visual\nFormat profile                           : Simple@L3\nFormat settings, BVOP                    : No\nFormat settings, QPel                    : No\nFormat settings, GMC                     : No warppoints\nFormat settings, Matrix                  : Default (H.263)\nCodec ID                                 : XVID\nCodec ID/Hint                            : XviD\nDuration                                 : 2h 19mn\nBit rate                                 : 1 431 Kbps\nWidth                                    : 720 pixels\nHeight                                   : 304 pixels\nDisplay aspect ratio                     : 2.40:1\nFrame rate                               : 23.976 fps\nColor space                              : YUV\nChroma subsampling                       : 4:2:0\nBit depth                                : 8 bits\nScan type                                : Progressive\nCompression mode                         : Lossy\nBits/(Pixel*Frame)                       : 0.273\nStream size                              : 1.40 GiB (76%)\nWriting library                          : XviD 64\n\nAudio\nID                                       : 1\nFormat                                   : AC-3\nFormat/Info                              : Audio Coding 3\nMode extension                           : CM (complete main)\nFormat settings, Endianness              : Big\nCodec ID                                 : 2000\nDuration                                 : 2h 19mn\nBit rate mode                            : Constant\nBit rate                                 : 448 Kbps\nChannel count                            : 2 channels\nChannel positions                        : Front: L R\nSampling rate                            : 48.0 KHz\nBit depth                                : 16 bits\nCompression mode                         : Lossy\nStream size                              : 448 MiB (24%)\nAlignment                                : Aligned on interleaves\nInterleave, duration                     : 32 ms (0.77 video frame)\nInterleave, preload duration             : 512 ms\n\n\n\nAction:Crime:Thriller\n\nDeckard Shaw seeks revenge against Dominic Toretto and his family for his comatose brother.\n\n\nDirector: James Wan \n\nWriters: Chris Morgan, Gary Scott Thompson (characters) \n\nStars: Vin Diesel, Paul Walker, Dwayne Johnson\n &lt;a href=&quot;\nhttp://www.imdb.com/title/tt2820852/&quot; rel=&quot;nofollow&quot; target=&quot;_NEW&quot;&gt;\nhttp://www.imdb.com/title/tt2820852/&lt;/a&gt;","torrent":{"xt":"urn:btih:df2e43ef325481e50d9bca5ebe36d99fd89968f8","amp;dn":"Furious.Seven.2015.EXTENDED.BRRip.XViD.AC3-Shelby","amp;tr":["udp%3A%2F%2Ftracker.openbittorrent.com%3A80","udp%3A%2F%2Fopen.demonii.com%3A1337","udp%3A%2F%2Ftracker.coppersurfer.tk%3A6969","udp%3A%2F%2Fexodus.desync.com%3A6969"],"infoHash":"df2e43ef325481e50d9bca5ebe36d99fd89968f8","infoHashBuffer":{"type":"Buffer","data":[223,46,67,239,50,84,129,229,13,155,202,94,190,54,217,159,216,153,104,248]},"announce":[],"urlList":[]}}